<?xml version="1.0" encoding="utf-8"?>
<!-- Generator: Adobe Illustrator 16.0.0, SVG Export Plug-In . SVG Version: 6.00 Build 0)  -->
<!DOCTYPE svg PUBLIC "-//W3C//DTD SVG 1.1//EN" "http://www.w3.org/Graphics/SVG/1.1/DTD/svg11.dtd">
<svg version="1.1" id="图层_1" xmlns="http://www.w3.org/2000/svg" xmlns:xlink="http://www.w3.org/1999/xlink" x="0px" y="0px"
	 width="438.333px" height="386.331px" viewBox="0 0 438.333 386.331" enable-background="new 0 0 438.333 386.331"
	 xml:space="preserve">
<line fill="none" stroke="#000000" stroke-miterlimit="10" x1="2.5" y1="43" x2="2.5" y2="87"/>
<line fill="none" stroke="#000000" stroke-miterlimit="10" x1="2" y1="43.5" x2="80" y2="43.5"/>
<line fill="none" stroke="#000000" stroke-miterlimit="10" x1="79.5" y1="44" x2="79.5" y2="82"/>
<line fill="none" stroke="#000000" stroke-miterlimit="10" x1="79" y1="82.5" x2="25" y2="82.5"/>
<line fill="none" stroke="#000000" stroke-miterlimit="10" x1="24.5" y1="83" x2="24.5" y2="87"/>
<line fill="none" stroke="#000000" stroke-miterlimit="10" x1="24" y1="87.5" x2="2" y2="87.5"/>
<line fill="none" stroke="#000000" stroke-miterlimit="10" x1="46" y1="3.5" x2="197" y2="3.5"/>
<line fill="none" stroke="#000000" stroke-miterlimit="10" x1="196.5" y1="4" x2="196.5" y2="15"/>
<line fill="none" stroke="#000000" stroke-miterlimit="10" x1="197" y1="15.5" x2="192" y2="15.5"/>
<line fill="none" stroke="#000000" stroke-miterlimit="10" x1="191.5" y1="16" x2="191.5" y2="57"/>
<line fill="none" stroke="#000000" stroke-miterlimit="10" x1="191" y1="57.5" x2="197" y2="57.5"/>
<line fill="none" stroke="#000000" stroke-miterlimit="10" x1="196.5" y1="58" x2="196.5" y2="70"/>
<line fill="none" stroke="#000000" stroke-miterlimit="10" x1="196" y1="70.5" x2="130" y2="70.5"/>
<line fill="none" stroke="#000000" stroke-miterlimit="10" x1="129.5" y1="71" x2="129.5" y2="65"/>
<line fill="none" stroke="#000000" stroke-miterlimit="10" x1="129" y1="65.5" x2="114" y2="65.5"/>
<line fill="none" stroke="#000000" stroke-miterlimit="10" x1="113.5" y1="66" x2="113.5" y2="59"/>
<line fill="none" stroke="#000000" stroke-miterlimit="10" x1="113" y1="59.5" x2="137" y2="59.5"/>
<line fill="none" stroke="#000000" stroke-miterlimit="10" x1="136.5" y1="60" x2="136.5" y2="57"/>
<line fill="none" stroke="#000000" stroke-miterlimit="10" x1="136" y1="57.5" x2="168" y2="57.5"/>
<line fill="none" stroke="#000000" stroke-miterlimit="10" x1="167.5" y1="58" x2="167.5" y2="44"/>
<line fill="none" stroke="#000000" stroke-miterlimit="10" x1="167" y1="44.5" x2="179" y2="44.5"/>
<line fill="none" stroke="#000000" stroke-miterlimit="10" x1="178.5" y1="45" x2="178.5" y2="16"/>
<line fill="none" stroke="#000000" stroke-miterlimit="10" x1="178" y1="16.5" x2="125" y2="16.5"/>
<line fill="none" stroke="#000000" stroke-miterlimit="10" x1="124.5" y1="17" x2="124.5" y2="27"/>
<line fill="none" stroke="#000000" stroke-miterlimit="10" x1="124" y1="27.5" x2="107" y2="27.5"/>
<line fill="none" stroke="#000000" stroke-miterlimit="10" x1="106.5" y1="28" x2="106.5" y2="17"/>
<line fill="none" stroke="#000000" stroke-miterlimit="10" x1="108" y1="16.5" x2="46" y2="16.5"/>
<line fill="none" stroke="#000000" stroke-miterlimit="10" x1="45.5" y1="17" x2="45.5" y2="15"/>
<line fill="none" stroke="#000000" stroke-miterlimit="10" x1="45" y1="15.5" x2="29" y2="15.5"/>
<line fill="none" stroke="#000000" stroke-miterlimit="10" x1="28.5" y1="16" x2="28.5" y2="6"/>
<line fill="none" stroke="#000000" stroke-miterlimit="10" x1="28" y1="6.5" x2="43" y2="6.5"/>
<line fill="none" stroke="#000000" stroke-miterlimit="10" x1="46" y1="3.5" x2="44" y2="3.5"/>
<line fill="none" stroke="#000000" stroke-miterlimit="10" x1="43.5" y1="3" x2="43.5" y2="6"/>
<line fill="none" stroke="#000000" stroke-miterlimit="10" x1="225" y1="3.5" x2="350" y2="3.5"/>
<line fill="none" stroke="#000000" stroke-miterlimit="10" x1="351.5" y1="7" x2="351.5" y2="22"/>
<line fill="none" stroke="#000000" stroke-miterlimit="10" x1="351" y1="22.5" x2="339" y2="22.5"/>
<line fill="none" stroke="#000000" stroke-miterlimit="10" x1="338.5" y1="22" x2="338.5" y2="61"/>
<line fill="none" stroke="#000000" stroke-miterlimit="10" x1="338" y1="60.5" x2="351" y2="60.5"/>
<line fill="none" stroke="#000000" stroke-miterlimit="10" x1="350.5" y1="61" x2="350.5" y2="84"/>
<line fill="none" stroke="#000000" stroke-miterlimit="10" x1="322" y1="83.5" x2="226" y2="83.5"/>
<line fill="none" stroke="#000000" stroke-miterlimit="10" x1="225.5" y1="84" x2="225.5" y2="61"/>
<line fill="none" stroke="#000000" stroke-miterlimit="10" x1="225" y1="61.5" x2="253" y2="61.5"/>
<line fill="none" stroke="#000000" stroke-miterlimit="10" x1="252.5" y1="62" x2="252.5" y2="48"/>
<line fill="none" stroke="#B3B3B3" stroke-miterlimit="10" x1="252" y1="48.5" x2="226" y2="48.5"/>
<line fill="none" stroke="#B3B3B3" stroke-miterlimit="10" x1="225.5" y1="49" x2="225.5" y2="23"/>
<line fill="none" stroke="#000000" stroke-miterlimit="10" x1="351" y1="7.5" x2="367" y2="7.5"/>
<line fill="none" stroke="#000000" stroke-miterlimit="10" x1="366.5" y1="8" x2="366.5" y2="10"/>
<line fill="none" stroke="#000000" stroke-miterlimit="10" x1="366" y1="10.5" x2="423" y2="10.5"/>
<line fill="none" stroke="#000000" stroke-miterlimit="10" x1="422.5" y1="11" x2="422.5" y2="22"/>
<line fill="none" stroke="#000000" stroke-miterlimit="10" x1="422" y1="21.5" x2="435" y2="21.5"/>
<line fill="none" stroke="#000000" stroke-miterlimit="10" x1="434.5" y1="21" x2="434.5" y2="78"/>
<line fill="none" stroke="#000000" stroke-miterlimit="10" x1="434" y1="78.5" x2="413" y2="78.5"/>
<line fill="none" stroke="#000000" stroke-miterlimit="10" x1="412.5" y1="78" x2="412.5" y2="80"/>
<line fill="none" stroke="#000000" stroke-miterlimit="10" x1="413" y1="80.5" x2="408" y2="80.5"/>
<line fill="none" stroke="#000000" stroke-miterlimit="10" x1="407.5" y1="81" x2="407.5" y2="62"/>
<line fill="none" stroke="#000000" stroke-miterlimit="10" x1="407" y1="62.5" x2="415" y2="62.5"/>
<line fill="none" stroke="#000000" stroke-miterlimit="10" x1="414.5" y1="63" x2="414.5" y2="28"/>
<line fill="none" stroke="#000000" stroke-miterlimit="10" x1="415" y1="27.5" x2="351" y2="27.5"/>
<line fill="none" stroke="#000000" stroke-miterlimit="10" x1="350.5" y1="8" x2="350.5" y2="3"/>
<line fill="none" stroke="#000000" stroke-miterlimit="10" x1="315.5" y1="22" x2="315.5" y2="62"/>
<line fill="none" stroke="#000000" stroke-miterlimit="10" x1="315" y1="61.5" x2="261" y2="61.5"/>
<line fill="none" stroke="#000000" stroke-miterlimit="10" x1="260.5" y1="62" x2="260.5" y2="32"/>
<line fill="none" stroke="#B3B3B3" stroke-miterlimit="10" x1="261" y1="34.5" x2="274" y2="34.5"/>
<line fill="none" stroke="#B3B3B3" stroke-miterlimit="10" x1="273.5" y1="35" x2="273.5" y2="22"/>
<line fill="none" stroke="#000000" stroke-miterlimit="10" x1="274" y1="22.5" x2="316" y2="22.5"/>
<line fill="none" stroke="#000000" stroke-miterlimit="10" x1="351.5" y1="28" x2="351.5" y2="21"/>
<line fill="none" stroke="#000000" stroke-miterlimit="10" x1="334.5" y1="70" x2="334.5" y2="97"/>
<line fill="none" stroke="#000000" stroke-miterlimit="10" x1="335" y1="96.5" x2="322" y2="96.5"/>
<line fill="none" stroke="#000000" stroke-miterlimit="10" x1="321.5" y1="97" x2="321.5" y2="70"/>
<line fill="none" stroke="#000000" stroke-miterlimit="10" x1="321" y1="96.5" x2="286" y2="96.5"/>
<line fill="none" stroke="#000000" stroke-miterlimit="10" x1="285.5" y1="97" x2="285.5" y2="163"/>
<line fill="none" stroke="#000000" stroke-miterlimit="10" x1="285" y1="163.5" x2="335" y2="163.5"/>
<line fill="none" stroke="#000000" stroke-miterlimit="10" x1="334.5" y1="164" x2="334.5" y2="96"/>
<line fill="none" stroke="#000000" stroke-miterlimit="10" x1="319.5" y1="164" x2="319.5" y2="188"/>
<line fill="none" stroke="#000000" stroke-miterlimit="10" x1="332.5" y1="189" x2="332.5" y2="163"/>
<line fill="none" stroke="#000000" stroke-miterlimit="10" x1="332" y1="189.5" x2="344" y2="189.5"/>
<line fill="none" stroke="#000000" stroke-miterlimit="10" x1="343.5" y1="190" x2="343.5" y2="220"/>
<line fill="none" stroke="#000000" stroke-miterlimit="10" x1="343" y1="220.5" x2="281" y2="220.5"/>
<line fill="none" stroke="#000000" stroke-miterlimit="10" x1="280.5" y1="221" x2="280.5" y2="189"/>
<line fill="none" stroke="#000000" stroke-miterlimit="10" x1="280" y1="189.5" x2="343" y2="189.5"/>
<line fill="none" stroke="#000000" stroke-miterlimit="10" x1="280" y1="189.5" x2="216" y2="189.5"/>
<line fill="none" stroke="#000000" stroke-miterlimit="10" x1="215.5" y1="190" x2="215.5" y2="185"/>
<line fill="none" stroke="#000000" stroke-miterlimit="10" x1="215" y1="185.5" x2="196" y2="185.5"/>
<line fill="none" stroke="#000000" stroke-miterlimit="10" x1="195.5" y1="186" x2="195.5" y2="198"/>
<line fill="none" stroke="#000000" stroke-miterlimit="10" x1="195" y1="198.5" x2="186" y2="198.5"/>
<line fill="none" stroke="#000000" stroke-miterlimit="10" x1="185.5" y1="199" x2="185.5" y2="240"/>
<line fill="none" stroke="#000000" stroke-miterlimit="10" x1="185" y1="240.5" x2="215" y2="240.5"/>
<line fill="none" stroke="#000000" stroke-miterlimit="10" x1="214.5" y1="241" x2="214.5" y2="238"/>
<line fill="none" stroke="#000000" stroke-miterlimit="10" x1="214" y1="238.5" x2="280" y2="238.5"/>
<line fill="none" stroke="#000000" stroke-miterlimit="10" x1="279.5" y1="239" x2="279.5" y2="221"/>
<line fill="none" stroke="#000000" stroke-miterlimit="10" x1="162" y1="289.5" x2="216" y2="289.5"/>
<line fill="none" stroke="#000000" stroke-miterlimit="10" x1="215.5" y1="290" x2="215.5" y2="305"/>
<line fill="none" stroke="#000000" stroke-miterlimit="10" x1="215" y1="304.5" x2="178" y2="304.5"/>
<line fill="none" stroke="#000000" stroke-miterlimit="10" x1="178.5" y1="305" x2="178.5" y2="365"/>
<line fill="none" stroke="#000000" stroke-miterlimit="10" x1="178" y1="365.5" x2="216" y2="365.5"/>
<line fill="none" stroke="#000000" stroke-miterlimit="10" x1="215.5" y1="365" x2="215.5" y2="382"/>
<line fill="none" stroke="#000000" stroke-miterlimit="10" x1="215" y1="381.5" x2="163" y2="381.5"/>
<line fill="none" stroke="#000000" stroke-miterlimit="10" x1="70.5" y1="17" x2="70.5" y2="43"/>
<line fill="none" stroke="#000000" stroke-miterlimit="10" x1="170.5" y1="304" x2="170.5" y2="366"/>
<line fill="none" stroke="#000000" stroke-miterlimit="10" x1="76.5" y1="43" x2="76.5" y2="17"/>
<line fill="none" stroke="#000000" stroke-miterlimit="10" x1="196" y1="61.5" x2="225" y2="61.5"/>
<line fill="none" stroke="#000000" stroke-miterlimit="10" x1="196" y1="70.5" x2="225" y2="70.5"/>
<line fill="none" stroke="#000000" stroke-miterlimit="10" x1="274" y1="22.5" x2="260" y2="22.5"/>
<line fill="none" stroke="#000000" stroke-miterlimit="10" x1="260.5" y1="22" x2="260.5" y2="32"/>
<line fill="none" stroke="#000000" stroke-miterlimit="10" x1="252.5" y1="50" x2="252.5" y2="22"/>
<line fill="none" stroke="#000000" stroke-miterlimit="10" x1="225" y1="22.5" x2="252" y2="22.5"/>
<line fill="none" stroke="#000000" stroke-miterlimit="10" x1="225.5" y1="22" x2="225.5" y2="3"/>
<line fill="none" stroke="#B3B3B3" stroke-miterlimit="10" x1="226" y1="15.5" x2="351" y2="15.5"/>
<line fill="none" stroke="#B3B3B3" stroke-miterlimit="10" x1="338" y1="22.5" x2="322" y2="22.5"/>
<line fill="none" stroke="#B3B3B3" stroke-miterlimit="10" x1="322.5" y1="22" x2="322.5" y2="61"/>
<line fill="none" stroke="#B3B3B3" stroke-miterlimit="10" x1="322" y1="60.5" x2="338" y2="60.5"/>
<line fill="none" stroke="#B3B3B3" stroke-miterlimit="10" x1="322.5" y1="16" x2="322.5" y2="4"/>
<line fill="none" stroke="#B3B3B3" stroke-miterlimit="10" x1="336.5" y1="16" x2="336.5" y2="4"/>
<line fill="none" stroke="#B3B3B3" stroke-miterlimit="10" x1="251.5" y1="16" x2="251.5" y2="4"/>
<line fill="none" stroke="#B3B3B3" stroke-miterlimit="10" x1="238.5" y1="16" x2="238.5" y2="4"/>
<line fill="none" stroke="#B3B3B3" stroke-miterlimit="10" x1="260.5" y1="4" x2="260.5" y2="16"/>
<line fill="none" stroke="#B3B3B3" stroke-miterlimit="10" x1="314.5" y1="4" x2="314.5" y2="16"/>
<line fill="none" stroke="#B3B3B3" stroke-miterlimit="10" x1="274.5" y1="16" x2="274.5" y2="4"/>
<line fill="none" stroke="#B3B3B3" stroke-miterlimit="10" x1="287.5" y1="16" x2="287.5" y2="4"/>
<line fill="none" stroke="#B3B3B3" stroke-miterlimit="10" x1="301.5" y1="16" x2="301.5" y2="4"/>
<line fill="none" stroke="#000000" stroke-miterlimit="10" x1="334" y1="83.5" x2="351" y2="83.5"/>
<line fill="none" stroke="#B3B3B3" stroke-miterlimit="10" x1="335" y1="70.5" x2="350" y2="70.5"/>
<line fill="none" stroke="#B3B3B3" stroke-miterlimit="10" x1="321" y1="70.5" x2="226" y2="70.5"/>
<line fill="none" stroke="#B3B3B3" stroke-miterlimit="10" x1="241.5" y1="83" x2="241.5" y2="71"/>
<line fill="none" stroke="#B3B3B3" stroke-miterlimit="10" x1="249.5" y1="71" x2="249.5" y2="83"/>
<line fill="none" stroke="#B3B3B3" stroke-miterlimit="10" x1="268.5" y1="71" x2="268.5" y2="83"/>
<line fill="none" stroke="#B3B3B3" stroke-miterlimit="10" x1="287.5" y1="71" x2="287.5" y2="83"/>
<line fill="none" stroke="#B3B3B3" stroke-miterlimit="10" x1="313.5" y1="71" x2="313.5" y2="83"/>
<line fill="none" stroke="#B3B3B3" stroke-miterlimit="10" x1="305.5" y1="71" x2="305.5" y2="83"/>
<line fill="none" stroke="#000000" stroke-miterlimit="10" x1="162.5" y1="289" x2="162.5" y2="305"/>
<line fill="none" stroke="#000000" stroke-miterlimit="10" x1="162.5" y1="365" x2="162.5" y2="382"/>
<line fill="none" stroke="#000000" stroke-miterlimit="10" x1="162" y1="304.5" x2="170" y2="304.5"/>
<line fill="none" stroke="#000000" stroke-miterlimit="10" x1="162" y1="365.5" x2="170" y2="365.5"/>
<line fill="none" stroke="#B3B3B3" stroke-miterlimit="10" x1="163" y1="370.5" x2="215" y2="370.5"/>
<line fill="none" stroke="#B3B3B3" stroke-miterlimit="10" x1="163" y1="299.5" x2="215" y2="299.5"/>
<line fill="none" stroke="#B3B3B3" stroke-miterlimit="10" x1="366.5" y1="11" x2="366.5" y2="27"/>
<line fill="none" stroke="#B3B3B3" stroke-miterlimit="10" x1="367" y1="21.5" x2="422" y2="21.5"/>
<line fill="none" stroke="#B3B3B3" stroke-miterlimit="10" x1="422.5" y1="22" x2="422.5" y2="78"/>
<line fill="none" stroke="#B3B3B3" stroke-miterlimit="10" x1="414.5" y1="63" x2="414.5" y2="78"/>
<line fill="none" stroke="#B3B3B3" stroke-miterlimit="10" x1="404.5" y1="21" x2="404.5" y2="11"/>
<line fill="none" stroke="#B3B3B3" stroke-miterlimit="10" x1="385.5" y1="21" x2="385.5" y2="11"/>
<line fill="none" stroke="#B3B3B3" stroke-miterlimit="10" x1="423" y1="39.5" x2="434" y2="39.5"/>
<line fill="none" stroke="#B3B3B3" stroke-miterlimit="10" x1="423" y1="57.5" x2="434" y2="57.5"/>
</svg>
